<svg width="220" height="166" viewBox="0 0 220 166" fill="none" xmlns="http://www.w3.org/2000/svg">
<path d="M4.578 1.77298C4.0413 0.80756 2.8236 0.460012 1.85818 0.996707C0.892765 1.5334 0.545217 2.75111 1.08191 3.71652L4.578 1.77298ZM22.9058 64.9988L24.8998 64.8445L24.8998 64.8438L22.9058 64.9988ZM61.6084 153.54L61.8257 151.552L61.8256 151.552L61.6084 153.54ZM163.38 89.2648L163.814 87.3125L163.813 87.3123L163.38 89.2648ZM199.947 160.006C199.907 161.109 200.768 162.037 201.872 162.078C202.976 162.119 203.904 161.257 203.945 160.153L199.947 160.006ZM183.084 139.321C182.203 138.655 180.949 138.829 180.283 139.71C179.616 140.591 179.79 141.845 180.671 142.511L183.084 139.321ZM219.349 134.526C219.832 133.532 219.419 132.335 218.425 131.852C217.432 131.369 216.235 131.783 215.752 132.776L219.349 134.526ZM2.82996 2.74475C1.08191 3.71652 1.08181 3.71635 1.08178 3.71629C1.08186 3.71644 1.0819 3.7165 1.08206 3.71679C1.08238 3.71736 1.08296 3.71841 1.08381 3.71995C1.08551 3.72302 1.08828 3.72802 1.0921 3.73493C1.09972 3.74874 1.11154 3.77018 1.12743 3.79914C1.1592 3.85705 1.20724 3.94498 1.27053 4.06192C1.39711 4.29582 1.58468 4.64571 1.82521 5.10349C2.30629 6.0191 2.99896 7.36585 3.83885 9.07876C5.51912 12.5056 7.78599 17.3925 10.126 23.2204C14.8171 34.904 19.7533 50.2509 20.9118 65.1538L24.8998 64.8438C23.6958 49.356 18.5942 33.5758 13.838 21.73C11.4543 15.7934 9.14517 10.815 7.43034 7.31774C6.57269 5.56861 5.86303 4.18861 5.36618 3.24298C5.11774 2.77014 4.92245 2.40579 4.7884 2.1581C4.72138 2.03425 4.66966 1.93955 4.63425 1.87503C4.61655 1.84277 4.60293 1.81805 4.59351 1.801C4.5888 1.79247 4.58515 1.78586 4.58255 1.78119C4.58126 1.77885 4.58023 1.777 4.57947 1.77563C4.57909 1.77494 4.57872 1.77428 4.57853 1.77394C4.57823 1.7734 4.578 1.77298 2.82996 2.74475ZM20.9117 65.153C22.0901 80.3859 24.6209 101.93 30.4983 120.107C33.436 129.192 37.2488 137.562 42.2415 143.897C47.2529 150.255 53.5483 154.671 61.3911 155.528L61.8256 151.552C55.3521 150.844 49.9453 147.209 45.383 141.421C40.802 135.608 37.1694 127.737 34.3043 118.876C28.5762 101.161 26.0721 79.9992 24.8998 64.8445L20.9117 65.153ZM61.3911 155.528C93.5918 159.048 111.716 140.453 125.514 122.535C132.502 113.46 138.218 104.815 144.271 98.7045C150.24 92.6776 156.009 89.6785 162.947 91.2174L163.813 87.3123C154.899 85.335 147.796 89.4619 141.429 95.8896C135.146 102.233 129.062 111.371 122.345 120.094C108.732 137.772 91.8214 154.83 61.8257 151.552L61.3911 155.528ZM162.946 91.2172C177.909 94.5428 187.358 106.053 193.007 119.793C198.656 133.535 200.348 149.182 199.947 160.006L203.945 160.153C204.361 148.892 202.619 132.654 196.706 118.272C190.793 103.887 180.551 91.0326 163.814 87.3125L162.946 91.2172ZM180.671 142.511C180.599 142.457 180.643 142.482 180.878 142.742C181.072 142.957 181.327 143.255 181.642 143.633C182.271 144.387 183.09 145.405 184.046 146.601C185.95 148.983 188.376 152.049 190.793 154.995C193.202 157.932 195.65 160.809 197.606 162.807C198.566 163.788 199.499 164.652 200.299 165.196C200.671 165.448 201.208 165.769 201.824 165.89C202.155 165.955 202.631 165.987 203.146 165.806C203.703 165.609 204.125 165.226 204.389 164.774L200.937 162.754C201.111 162.456 201.411 162.176 201.817 162.033C202.18 161.905 202.474 161.941 202.596 161.965C202.792 162.004 202.8 162.059 202.546 161.886C202.095 161.58 201.394 160.958 200.465 160.009C198.642 158.147 196.289 155.388 193.885 152.458C191.49 149.538 189.092 146.507 187.171 144.104C186.215 142.908 185.373 141.861 184.715 141.072C184.387 140.679 184.094 140.335 183.849 140.064C183.644 139.837 183.36 139.53 183.084 139.321L180.671 142.511ZM204.389 164.774C205.16 163.457 208.932 155.823 212.444 148.663C214.216 145.052 215.942 141.517 217.225 138.886C217.867 137.57 218.398 136.48 218.768 135.719C218.954 135.339 219.099 135.04 219.198 134.837C219.247 134.736 219.285 134.658 219.31 134.605C219.323 134.579 219.333 134.559 219.339 134.546C219.343 134.539 219.345 134.534 219.347 134.531C219.348 134.529 219.348 134.528 219.349 134.527C219.349 134.527 219.349 134.526 219.349 134.526C219.349 134.526 219.349 134.526 217.551 133.651C215.752 132.776 215.752 132.777 215.752 132.777C215.752 132.777 215.752 132.777 215.751 132.778C215.751 132.779 215.75 132.78 215.749 132.781C215.748 132.785 215.745 132.79 215.742 132.796C215.736 132.81 215.726 132.829 215.713 132.856C215.688 132.908 215.65 132.986 215.601 133.087C215.502 133.29 215.357 133.588 215.172 133.968C214.802 134.729 214.271 135.818 213.63 137.133C212.347 139.762 210.623 143.294 208.853 146.902C205.282 154.182 201.61 161.604 200.937 162.754L204.389 164.774Z" fill="#B692F6"/>
</svg>
